<svg width="12" height="16" viewBox="0 0 12 16" xmlns="http://www.w3.org/2000/svg">
<path d="M3.035 11.3322C2.76344 11.0606 2.905 11.1372 2.25 10.9619C1.95281 10.8822 1.69156 10.7291 1.45531 10.5456L0.0375007 14.0219C-0.0996868 14.3584 0.156563 14.7241 0.519688 14.7103L2.16625 14.6475L3.29875 15.8438C3.54875 16.1075 3.9875 16.0253 4.12469 15.6888L5.75125 11.7006C5.4125 11.8894 5.03656 12 4.64781 12C4.03844 12 3.46594 11.7628 3.035 11.3322ZM11.9625 14.0219L10.5447 10.5456C10.3084 10.7294 10.0472 10.8822 9.75 10.9619C9.09156 11.1381 9.23594 11.0613 8.965 11.3322C8.53406 11.7628 7.96125 12 7.35188 12C6.96313 12 6.58719 11.8891 6.24844 11.7006L7.875 15.6888C8.01219 16.0253 8.45125 16.1075 8.70094 15.8438L9.83375 14.6475L11.4803 14.7103C11.8434 14.7241 12.0997 14.3581 11.9625 14.0219ZM8.21875 10.625C8.69625 10.1391 8.75094 10.1809 9.43094 9.99563C9.865 9.87719 10.2044 9.53188 10.3206 9.09001C10.5544 8.20251 10.4938 8.3097 11.1316 7.66032C11.4494 7.33688 11.5734 6.86532 11.4572 6.42345C11.2238 5.53657 11.2234 5.66032 11.4572 4.77251C11.5734 4.33063 11.4494 3.85907 11.1316 3.53563C10.4938 2.88626 10.5544 2.99313 10.3206 2.10595C10.2044 1.66407 9.865 1.31876 9.43094 1.20032C8.55969 0.962508 8.66469 1.0247 8.02625 0.375008C7.70844 0.0515703 7.245 -0.0749922 6.81094 0.0434453C5.94 0.280945 6.06156 0.281258 5.18906 0.0434453C4.755 -0.0749922 4.29156 0.0512578 3.97375 0.375008C3.33594 1.02438 3.44094 0.962508 2.56938 1.20032C2.13531 1.31876 1.79594 1.66407 1.67969 2.10595C1.44625 2.99313 1.50656 2.88626 0.868751 3.53563C0.550938 3.85907 0.426563 4.33063 0.543126 4.77251C0.776563 5.65876 0.776876 5.53501 0.543126 6.42313C0.426876 6.86501 0.550938 7.33657 0.868751 7.66032C1.50656 8.3097 1.44594 8.20251 1.67969 9.09001C1.79594 9.53188 2.13531 9.87719 2.56938 9.99563C3.26875 10.1863 3.32094 10.1563 3.78125 10.625C4.19469 11.0459 4.83875 11.1213 5.33563 10.8069C5.53432 10.6807 5.76481 10.6138 6.00016 10.6138C6.23551 10.6138 6.466 10.6807 6.66469 10.8069C7.16125 11.1213 7.80531 11.0459 8.21875 10.625ZM3.05188 5.49876C3.05188 3.84157 4.37188 2.49813 6 2.49813C7.62813 2.49813 8.94813 3.84157 8.94813 5.49876C8.94813 7.15595 7.62813 8.49938 6 8.49938C4.37188 8.49938 3.05188 7.15595 3.05188 5.49876Z" />
</svg>
