<svg width="16" height="12" viewBox="0 0 16 12" xmlns="http://www.w3.org/2000/svg">
<path d="M3.55556 3.33329H12.4444V8.66663H3.55556V3.33329ZM14.6667 5.99996C14.6667 6.73635 15.2636 7.33329 16 7.33329V9.99996C16 10.7363 15.4031 11.3333 14.6667 11.3333H1.33333C0.596944 11.3333 0 10.7363 0 9.99996V7.33329C0.736389 7.33329 1.33333 6.73635 1.33333 5.99996C1.33333 5.26357 0.736389 4.66663 0 4.66663V1.99996C0 1.26357 0.596944 0.666626 1.33333 0.666626H14.6667C15.4031 0.666626 16 1.26357 16 1.99996V4.66663C15.2636 4.66663 14.6667 5.26357 14.6667 5.99996ZM13.3333 3.11107C13.3333 2.74288 13.0349 2.4444 12.6667 2.4444H3.33333C2.96514 2.4444 2.66667 2.74288 2.66667 3.11107V8.88885C2.66667 9.25704 2.96514 9.55551 3.33333 9.55551H12.6667C13.0349 9.55551 13.3333 9.25704 13.3333 8.88885V3.11107Z" />
</svg>
