<svg width="19" height="19" viewBox="0 0 19 19" xmlns="http://www.w3.org/2000/svg">
<path d="M17.7656 16.7773H1.23438C0.836816 16.7773 0.515625 17.0985 0.515625 17.4961V18.3047C0.515625 18.4035 0.596484 18.4844 0.695312 18.4844H18.3047C18.4035 18.4844 18.4844 18.4035 18.4844 18.3047V17.4961C18.4844 17.0985 18.1632 16.7773 17.7656 16.7773ZM3.78818 14.8906C3.83311 14.8906 3.87803 14.8861 3.92295 14.8794L7.70088 14.2168C7.7458 14.2078 7.78848 14.1876 7.81992 14.1539L17.3411 4.63271C17.3619 4.61194 17.3785 4.58725 17.3897 4.56008C17.401 4.53291 17.4068 4.50378 17.4068 4.47437C17.4068 4.44495 17.401 4.41582 17.3897 4.38865C17.3785 4.36148 17.3619 4.3368 17.3411 4.31602L13.6081 0.580762C13.5654 0.538086 13.5093 0.515625 13.4486 0.515625C13.388 0.515625 13.3318 0.538086 13.2892 0.580762L3.76797 10.102C3.73428 10.1356 3.71406 10.1761 3.70508 10.221L3.04248 13.9989C3.02063 14.1193 3.02844 14.2431 3.06523 14.3597C3.10202 14.4763 3.16668 14.5823 3.25361 14.6683C3.40186 14.812 3.58828 14.8906 3.78818 14.8906Z" />
</svg>
