<svg width="6" height="10" viewBox="0 0 6 10" fill="none" xmlns="http://www.w3.org/2000/svg">
  <path d="M5.87097 3.30347L3.38925 0.467346C3.36536 0.440002 3.33873 0.415344 3.30985 0.393677C3.28 0.371338 3.24774 0.352173 3.2136 0.33667C3.14638 0.306152 3.07343 0.290344 2.99962 0.290344C2.95641 0.290344 2.91349 0.295776 2.87186 0.306396C2.84236 0.313904 2.81351 0.324036 2.78565 0.33667C2.71843 0.367188 2.65854 0.411743 2.60997 0.467346L0.128253 3.30298C0.0627011 3.37781 0.0200986 3.46991 0.00555693 3.56836C-0.0089847 3.66675 0.0051602 3.76727 0.0462674 3.85785C0.0873898 3.94843 0.153735 4.02527 0.237384 4.0791C0.321032 4.13293 0.418429 4.1615 0.517901 4.16144H5.48133C5.92583 4.16144 6.16385 3.63727 5.87097 3.30347Z" fill="#9FA2B4"/>
  <path d="M0.129031 6.85797L2.61075 9.69409C2.6379 9.72516 2.66857 9.75281 2.70207 9.77643C2.72853 9.7951 2.75676 9.81128 2.78641 9.82477C2.81577 9.83807 2.84622 9.84863 2.87737 9.85626C2.91753 9.86609 2.95882 9.87109 3.00038 9.87109C3.07421 9.87109 3.14716 9.85529 3.21436 9.82477C3.24533 9.81073 3.27475 9.7937 3.30222 9.77399C3.33437 9.75085 3.36385 9.72406 3.39003 9.69409L5.87175 6.85846C5.9373 6.78363 5.97991 6.69153 5.99445 6.59308C6.00899 6.49469 5.99485 6.39417 5.95374 6.30359C5.91262 6.21301 5.84627 6.13617 5.76262 6.08234C5.67897 6.0285 5.58158 5.99994 5.4821 6H0.518679C0.0741757 6 -0.163846 6.52417 0.129031 6.85797Z" fill="#9FA2B4"/>
</svg>
