<svg width="55" height="55" viewBox="0 0 55 55" xmlns="http://www.w3.org/2000/svg">
<path d="M33.786 27.5L52.9568 8.37376C53.7963 7.53424 54.268 6.3956 54.268 5.20834C54.268 4.02108 53.7963 2.88245 52.9568 2.04292C52.1173 1.2034 50.9787 0.731766 49.7914 0.731766C48.6041 0.731766 47.4655 1.2034 46.626 2.04292L27.4997 21.2138L8.37348 2.04292C7.53396 1.2034 6.39532 0.731766 5.20806 0.731766C4.0208 0.731766 2.88217 1.2034 2.04264 2.04292C1.20312 2.88245 0.731486 4.02108 0.731486 5.20834C0.731486 6.3956 1.20312 7.53424 2.04264 8.37376L21.2135 27.5L2.04264 46.6263C1.62477 47.0407 1.2931 47.5338 1.06675 48.0771C0.840411 48.6204 0.723877 49.2031 0.723877 49.7917C0.723877 50.3802 0.840411 50.963 1.06675 51.5063C1.2931 52.0495 1.62477 52.5426 2.04264 52.9571C2.4571 53.375 2.9502 53.7066 3.49349 53.933C4.03678 54.1593 4.61951 54.2759 5.20806 54.2759C5.79661 54.2759 6.37934 54.1593 6.92263 53.933C7.46592 53.7066 7.95902 53.375 8.37348 52.9571L27.4997 33.7863L46.626 52.9571C47.0404 53.375 47.5335 53.7066 48.0768 53.933C48.6201 54.1593 49.2028 54.2759 49.7914 54.2759C50.3799 54.2759 50.9627 54.1593 51.506 53.933C52.0493 53.7066 52.5423 53.375 52.9568 52.9571C53.3747 52.5426 53.7064 52.0495 53.9327 51.5063C54.1591 50.963 54.2756 50.3802 54.2756 49.7917C54.2756 49.2031 54.1591 48.6204 53.9327 48.0771C53.7064 47.5338 53.3747 47.0407 52.9568 46.6263L33.786 27.5Z" />
</svg>
