<svg width="13" height="15" viewBox="0 0 13 15" fill="none" xmlns="http://www.w3.org/2000/svg">
<path d="M6.05556 6.05556V10.3889V6.05556ZM6.05556 10.3889L3.88889 8.22222L6.05556 10.3889ZM6.05556 10.3889L8.22222 8.22222L6.05556 10.3889ZM9.66667 14H2.44444C2.06135 14 1.69395 13.8478 1.42307 13.5769C1.15218 13.306 1 12.9386 1 12.5556V2.44444C1 2.06135 1.15218 1.69395 1.42307 1.42307C1.69395 1.15218 2.06135 1 2.44444 1H6.47878C6.67031 1.00004 6.85398 1.07616 6.98939 1.21161L10.8995 5.12172C11.035 5.25713 11.1111 5.4408 11.1111 5.63233V12.5556C11.1111 12.9386 10.9589 13.306 10.688 13.5769C10.4172 13.8478 10.0498 14 9.66667 14Z" stroke="currentColor" stroke-width="2" stroke-linecap="round" stroke-linejoin="round"/>
</svg>
