<svg width="11" height="19" viewBox="0 0 11 19" xmlns="http://www.w3.org/2000/svg">
<path d="M6.10935 12.1119V6.51375C6.10935 6.29476 6.02168 6.08475 5.86564 5.9299C5.7096 5.77505 5.49797 5.68806 5.27729 5.68806C5.05662 5.68806 4.84498 5.77505 4.68894 5.9299C4.5329 6.08475 4.44524 6.29476 4.44524 6.51375V12.1119C4.19373 12.256 3.9846 12.4629 3.83863 12.712C3.69266 12.9612 3.61494 13.2439 3.61319 13.5321C3.61319 13.97 3.78851 14.3901 4.10059 14.6998C4.41267 15.0095 4.83594 15.1834 5.27729 15.1834C5.71864 15.1834 6.14191 15.0095 6.45399 14.6998C6.76607 14.3901 6.9414 13.97 6.9414 13.5321C6.93965 13.2439 6.86192 12.9612 6.71595 12.712C6.56999 12.4629 6.36085 12.256 6.10935 12.1119ZM9.02153 10.2293V4.03669C9.02153 3.05126 8.62705 2.10618 7.92487 1.40938C7.22269 0.712568 6.27033 0.321106 5.27729 0.321106C4.28426 0.321106 3.3319 0.712568 2.62972 1.40938C1.92754 2.10618 1.53305 3.05126 1.53305 4.03669V10.2293C0.957974 10.876 0.562986 11.6605 0.38716 12.5051C0.211335 13.3498 0.260764 14.2253 0.530558 15.0452C0.800353 15.8651 1.28116 16.6008 1.92543 17.1797C2.5697 17.7586 3.3551 18.1606 4.20394 18.3458C4.55656 18.4256 4.91589 18.4726 5.27729 18.4862C6.24299 18.4907 7.18927 18.2171 8.00145 17.6986C8.81362 17.1801 9.45683 16.439 9.85313 15.5651C10.2494 14.6912 10.3818 13.722 10.2342 12.7749C10.0866 11.8279 9.66535 10.9436 9.02153 10.2293ZM7.35742 16.0669C6.6954 16.6494 5.82731 16.9471 4.94412 16.8945C4.06094 16.8418 3.235 16.4432 2.648 15.7862C2.06101 15.1292 1.76105 14.2678 1.8141 13.3914C1.86715 12.5149 2.26888 11.6953 2.9309 11.1128C3.00952 11.0363 3.07207 10.9452 3.11491 10.8445C3.15776 10.7439 3.18006 10.6358 3.18052 10.5266V4.03669C3.18052 3.48923 3.39967 2.96419 3.78978 2.57707C4.17988 2.18996 4.70897 1.97248 5.26065 1.97248C5.81234 1.97248 6.34143 2.18996 6.73153 2.57707C7.12163 2.96419 7.34078 3.48923 7.34078 4.03669V10.5926C7.34124 10.7019 7.36354 10.8099 7.40639 10.9106C7.44924 11.0112 7.51178 11.1024 7.5904 11.1789C7.9305 11.5049 8.19669 11.8991 8.37122 12.3353C8.54575 12.7714 8.62462 13.2394 8.60257 13.7082C8.58053 14.177 8.45808 14.6357 8.24338 15.0538C8.02867 15.4719 7.72665 15.8398 7.35742 16.133V16.0669Z" />
</svg>
