<svg width="128" height="128" viewBox="0 0 128 128" fill="none" xmlns="http://www.w3.org/2000/svg">
  <circle cx="64" cy="64" r="64" fill="white"/>
  <path fill-rule="evenodd" clip-rule="evenodd" d="M51.3496 50.227C50.9777 49.4746 50.21 48.9987 49.3699 49C48.5297 49.0013 47.7634 49.4794 47.3938 50.233L34.731 76.0511L29.5784 65.5868C31.3119 64.0844 32.4082 61.8678 32.4082 59.3955C32.4082 54.87 28.7351 51.2014 24.2041 51.2014C19.6731 51.2014 16 54.87 16 59.3955C16 63.921 19.6731 67.5896 24.2041 67.5896C24.678 67.5896 25.1425 67.5495 25.5945 67.4725L32.6344 81.7696C33.0367 82.5867 33.8786 83.0439 34.7348 82.9967C35.5922 83.0439 36.435 82.5852 36.8365 81.7665L49.3807 56.1902L62.0145 81.7542C62.113 81.9585 62.2433 82.1484 62.4025 82.3157C62.4337 82.3484 62.4657 82.38 62.4986 82.4105C62.6844 82.5831 62.8972 82.7205 63.1262 82.8191C63.4106 82.9421 63.7082 83.0004 64.0017 83C64.2977 83 64.5979 82.9402 64.8845 82.8145C65.1168 82.713 65.3323 82.5714 65.5194 82.3936C65.5489 82.3656 65.5775 82.3369 65.6052 82.3075C65.7625 82.1406 65.8912 81.9515 65.9883 81.7482L78.5235 56.1902L91.1664 81.7725C91.5694 82.5878 92.4102 83.0437 93.2652 82.9967C94.1214 83.0439 94.9633 82.5867 95.3656 81.7696L102.406 67.4725C102.857 67.5495 103.322 67.5896 103.796 67.5896C108.327 67.5896 112 63.921 112 59.3955C112 54.87 108.327 51.2014 103.796 51.2014C99.2649 51.2014 95.5918 54.87 95.5918 59.3955C95.5918 61.8678 96.6881 64.0844 98.4216 65.5868L93.2619 76.0654L80.4924 50.227C80.1206 49.4746 79.3528 48.9987 78.5127 49C77.6726 49.0013 76.9063 49.4794 76.5367 50.233L63.9925 75.8093L51.3496 50.227ZM24.2041 63.676C26.571 63.676 28.4898 61.7596 28.4898 59.3955C28.4898 57.0315 26.571 55.115 24.2041 55.115C21.8371 55.115 19.9184 57.0315 19.9184 59.3955C19.9184 61.7596 21.8371 63.676 24.2041 63.676ZM108.082 59.3955C108.082 61.7596 106.163 63.676 103.796 63.676C101.429 63.676 99.5102 61.7596 99.5102 59.3955C99.5102 57.0315 101.429 55.115 103.796 55.115C106.163 55.115 108.082 57.0315 108.082 59.3955Z" fill="url(#paint0_linear)"/>
  <defs>
    <linearGradient id="paint0_linear" x1="21.1613" y1="83" x2="107.871" y2="83" gradientUnits="userSpaceOnUse">
      <stop stop-color="#0055AA"/>
      <stop offset="1" stop-color="#03AF7A"/>
    </linearGradient>
  </defs>
</svg>
