<svg width="94" height="94" viewBox="0 0 94 94" fill="none" xmlns="http://www.w3.org/2000/svg">
<circle cx="47" cy="47" r="47" fill="#C4C4C4"/>
<path d="M21.4 58H31.312V56.104H23.632V40.384H21.4V58ZM38.9986 58.312C42.1906 58.312 45.0466 55.816 45.0466 51.496C45.0466 47.152 42.1906 44.632 38.9986 44.632C35.8066 44.632 32.9506 47.152 32.9506 51.496C32.9506 55.816 35.8066 58.312 38.9986 58.312ZM38.9986 56.488C36.7426 56.488 35.2306 54.496 35.2306 51.496C35.2306 48.496 36.7426 46.456 38.9986 46.456C41.2546 46.456 42.7906 48.496 42.7906 51.496C42.7906 54.496 41.2546 56.488 38.9986 56.488ZM52.8813 64C56.9133 64 59.4813 61.912 59.4813 59.488C59.4813 57.352 57.9453 56.392 54.9213 56.392H52.3773C50.6253 56.392 50.0973 55.816 50.0973 54.976C50.0973 54.256 50.4573 53.824 50.9373 53.416C51.5133 53.704 52.2333 53.872 52.8813 53.872C55.5213 53.872 57.6333 52.12 57.6333 49.336C57.6333 48.208 57.2013 47.248 56.5773 46.648H59.2413V44.968H54.7053C54.2493 44.8 53.6013 44.632 52.8813 44.632C50.2413 44.632 47.9853 46.432 47.9853 49.288C47.9853 50.848 48.8253 52.096 49.6893 52.792V52.888C49.0173 53.368 48.2253 54.232 48.2253 55.312C48.2253 56.344 48.7293 57.04 49.4253 57.448V57.544C48.2013 58.336 47.5053 59.392 47.5053 60.496C47.5053 62.752 49.6893 64 52.8813 64ZM52.8813 52.384C51.3693 52.384 50.0973 51.184 50.0973 49.288C50.0973 47.368 51.3453 46.24 52.8813 46.24C54.4173 46.24 55.6653 47.392 55.6653 49.288C55.6653 51.184 54.3693 52.384 52.8813 52.384ZM53.1933 62.512C50.8413 62.512 49.4253 61.6 49.4253 60.208C49.4253 59.44 49.8092 58.672 50.7453 58C51.3213 58.144 51.9453 58.216 52.4253 58.216H54.6813C56.4093 58.216 57.3453 58.624 57.3453 59.824C57.3453 61.192 55.6893 62.512 53.1933 62.512ZM66.7251 58.312C69.9171 58.312 72.7731 55.816 72.7731 51.496C72.7731 47.152 69.9171 44.632 66.7251 44.632C63.5331 44.632 60.6771 47.152 60.6771 51.496C60.6771 55.816 63.5331 58.312 66.7251 58.312ZM66.7251 56.488C64.4691 56.488 62.9571 54.496 62.9571 51.496C62.9571 48.496 64.4691 46.456 66.7251 46.456C68.9811 46.456 70.5171 48.496 70.5171 51.496C70.5171 54.496 68.9811 56.488 66.7251 56.488Z" fill="black"/>
</svg>

